<svg width="99" height="35" viewBox="0 0 99 35" fill="none" xmlns="http://www.w3.org/2000/svg">
<rect width="99" height="35" rx="6" fill="#131313"/>
<path d="M13.8778 22.1449C13.2045 22.142 12.6293 21.9645 12.152 21.6122C11.6747 21.2599 11.3097 20.7472 11.0568 20.0739C10.804 19.4006 10.6776 18.5895 10.6776 17.6406C10.6776 16.6946 10.804 15.8864 11.0568 15.2159C11.3125 14.5455 11.679 14.0341 12.1562 13.6818C12.6364 13.3295 13.2102 13.1534 13.8778 13.1534C14.5455 13.1534 15.1179 13.331 15.5952 13.6861C16.0724 14.0384 16.4375 14.5497 16.6903 15.2202C16.946 15.8878 17.0739 16.6946 17.0739 17.6406C17.0739 18.5923 16.9474 19.4048 16.6946 20.0781C16.4418 20.7486 16.0767 21.2614 15.5994 21.6165C15.1222 21.9688 14.5483 22.1449 13.8778 22.1449ZM13.8778 21.0071C14.4688 21.0071 14.9304 20.7188 15.2628 20.142C15.598 19.5653 15.7656 18.7315 15.7656 17.6406C15.7656 16.9162 15.6889 16.304 15.5355 15.804C15.3849 15.3011 15.1676 14.9205 14.8835 14.6619C14.6023 14.4006 14.267 14.2699 13.8778 14.2699C13.2898 14.2699 12.8281 14.5597 12.4929 15.1392C12.1577 15.7187 11.9886 16.5526 11.9858 17.6406C11.9858 18.3679 12.0611 18.983 12.2116 19.4858C12.3651 19.9858 12.5824 20.3651 12.8636 20.6236C13.1449 20.8793 13.483 21.0071 13.8778 21.0071ZM21.6325 22.1193C21.2433 22.1136 20.8597 22.0426 20.4819 21.9062C20.1069 21.7699 19.766 21.5426 19.4592 21.2244C19.1523 20.9062 18.9066 20.4787 18.7219 19.9418C18.5401 19.4048 18.4492 18.7344 18.4492 17.9304C18.4492 17.169 18.5245 16.4929 18.6751 15.902C18.8285 15.3111 19.0487 14.8125 19.3356 14.4062C19.6225 13.9972 19.9691 13.6861 20.3754 13.473C20.7816 13.2599 21.2376 13.1534 21.7433 13.1534C22.2631 13.1534 22.7248 13.2557 23.1282 13.4602C23.5316 13.6648 23.8583 13.9474 24.1083 14.3082C24.3612 14.669 24.5217 15.0795 24.5898 15.5398H23.2901C23.2021 15.1761 23.0273 14.8793 22.766 14.6491C22.5046 14.419 22.1637 14.304 21.7433 14.304C21.104 14.304 20.6055 14.5824 20.2475 15.1392C19.8924 15.696 19.7134 16.4702 19.7106 17.4616H19.7745C19.9251 17.2145 20.1097 17.0043 20.3285 16.831C20.5501 16.6548 20.7972 16.5199 21.07 16.4261C21.3455 16.3295 21.6353 16.2812 21.9393 16.2812C22.445 16.2812 22.9023 16.4048 23.3114 16.652C23.7234 16.8963 24.0515 17.2344 24.2958 17.6662C24.5401 18.098 24.6623 18.5923 24.6623 19.1491C24.6623 19.706 24.5359 20.2102 24.283 20.6619C24.033 21.1136 23.6808 21.4716 23.2262 21.7358C22.7717 21.9972 22.2404 22.125 21.6325 22.1193ZM21.6282 21.0114C21.9634 21.0114 22.2631 20.929 22.5273 20.7642C22.7915 20.5994 23.0004 20.3778 23.1538 20.0994C23.3072 19.821 23.3839 19.5099 23.3839 19.1662C23.3839 18.831 23.3086 18.5256 23.158 18.25C23.0103 17.9744 22.8058 17.7557 22.5444 17.5938C22.2859 17.4318 21.9904 17.3509 21.658 17.3509C21.4052 17.3509 21.1708 17.3991 20.9549 17.4957C20.7418 17.5923 20.5543 17.7259 20.3924 17.8963C20.2305 18.0668 20.1026 18.2628 20.0089 18.4844C19.918 18.7031 19.8725 18.9347 19.8725 19.179C19.8725 19.5057 19.9478 19.8082 20.0984 20.0866C20.2518 20.3651 20.4606 20.5895 20.7248 20.7599C20.9918 20.9276 21.293 21.0114 21.6282 21.0114ZM30.0881 17.0824V18.1903H26.2188V17.0824H30.0881ZM31.8885 22V13.2727H37.3004V14.4062H33.2053V17.0653H36.9126V18.1946H33.2053V22H31.8885ZM38.9197 22V13.2727H44.3913V14.4062H40.2365V17.0653H44.1058V18.1946H40.2365V20.8665H44.4425V22H38.9197ZM46.1502 22V13.2727H49.3462C49.9656 13.2727 50.4783 13.375 50.8846 13.5795C51.2908 13.7812 51.5948 14.0554 51.7965 14.402C51.9982 14.7457 52.0991 15.1335 52.0991 15.5653C52.0991 15.929 52.0323 16.2358 51.8988 16.4858C51.7653 16.733 51.5863 16.9318 51.3619 17.0824C51.1403 17.2301 50.896 17.3381 50.6289 17.4062V17.4915C50.9187 17.5057 51.2013 17.5994 51.4769 17.7727C51.7553 17.9432 51.9854 18.1861 52.1673 18.5014C52.3491 18.8168 52.44 19.2003 52.44 19.652C52.44 20.098 52.3349 20.4986 52.1246 20.8537C51.9173 21.206 51.5962 21.4858 51.1616 21.6932C50.7269 21.8977 50.1715 22 49.4954 22H46.1502ZM47.467 20.8707H49.3675C49.9982 20.8707 50.4499 20.7486 50.7227 20.5043C50.9954 20.2599 51.1317 19.9545 51.1317 19.5881C51.1317 19.3125 51.0621 19.0597 50.9229 18.8295C50.7837 18.5994 50.5849 18.4162 50.3263 18.2798C50.0707 18.1435 49.7667 18.0753 49.4144 18.0753H47.467V20.8707ZM47.467 17.0483H49.2312C49.5266 17.0483 49.7923 16.9915 50.0281 16.8778C50.2667 16.7642 50.4556 16.6051 50.5948 16.4006C50.7369 16.1932 50.8079 15.9489 50.8079 15.6676C50.8079 15.3068 50.6815 15.0043 50.4286 14.7599C50.1758 14.5156 49.788 14.3935 49.2653 14.3935H47.467V17.0483ZM57.756 17.0824V18.1903H53.8867V17.0824H57.756ZM59.0856 22V21.0455L62.0387 17.9858C62.354 17.6534 62.614 17.3622 62.8185 17.1122C63.0259 16.8594 63.1808 16.6193 63.283 16.392C63.3853 16.1648 63.4364 15.9233 63.4364 15.6676C63.4364 15.3778 63.3683 15.1278 63.2319 14.9176C63.0955 14.7045 62.9094 14.5412 62.6737 14.4276C62.4379 14.3111 62.1722 14.2528 61.8768 14.2528C61.5643 14.2528 61.2915 14.3168 61.0586 14.4446C60.8256 14.5724 60.6467 14.7528 60.5217 14.9858C60.3967 15.2187 60.3342 15.4915 60.3342 15.804H59.0771C59.0771 15.2727 59.1992 14.8082 59.4435 14.4105C59.6879 14.0128 60.0231 13.7045 60.4492 13.4858C60.8754 13.2642 61.3597 13.1534 61.9023 13.1534C62.4506 13.1534 62.9336 13.2628 63.3512 13.4815C63.7717 13.6974 64.0998 13.9929 64.3356 14.3679C64.5714 14.7401 64.6893 15.1605 64.6893 15.6293C64.6893 15.9531 64.6282 16.2699 64.506 16.5795C64.3867 16.8892 64.1779 17.2344 63.8796 17.6151C63.5813 17.9929 63.1665 18.4517 62.6353 18.9915L60.9009 20.8068V20.8707H64.8299V22H59.0856ZM69.4833 22.1449C68.81 22.142 68.2347 21.9645 67.7575 21.6122C67.2802 21.2599 66.9151 20.7472 66.6623 20.0739C66.4094 19.4006 66.283 18.5895 66.283 17.6406C66.283 16.6946 66.4094 15.8864 66.6623 15.2159C66.918 14.5455 67.2844 14.0341 67.7617 13.6818C68.2418 13.3295 68.8157 13.1534 69.4833 13.1534C70.1509 13.1534 70.7234 13.331 71.2006 13.6861C71.6779 14.0384 72.043 14.5497 72.2958 15.2202C72.5515 15.8878 72.6793 16.6946 72.6793 17.6406C72.6793 18.5923 72.5529 19.4048 72.3001 20.0781C72.0472 20.7486 71.6822 21.2614 71.2049 21.6165C70.7276 21.9688 70.1538 22.1449 69.4833 22.1449ZM69.4833 21.0071C70.0742 21.0071 70.5359 20.7188 70.8683 20.142C71.2035 19.5653 71.3711 18.7315 71.3711 17.6406C71.3711 16.9162 71.2944 16.304 71.141 15.804C70.9904 15.3011 70.7731 14.9205 70.489 14.6619C70.2077 14.4006 69.8725 14.2699 69.4833 14.2699C68.8952 14.2699 68.4336 14.5597 68.0984 15.1392C67.7631 15.7187 67.5941 16.5526 67.5913 17.6406C67.5913 18.3679 67.6665 18.983 67.8171 19.4858C67.9705 19.9858 68.1879 20.3651 68.4691 20.6236C68.7504 20.8793 69.0884 21.0071 69.4833 21.0071ZM74.1911 22V21.0455L77.1442 17.9858C77.4595 17.6534 77.7195 17.3622 77.924 17.1122C78.1314 16.8594 78.2862 16.6193 78.3885 16.392C78.4908 16.1648 78.5419 15.9233 78.5419 15.6676C78.5419 15.3778 78.4737 15.1278 78.3374 14.9176C78.201 14.7045 78.0149 14.5412 77.7791 14.4276C77.5433 14.3111 77.2777 14.2528 76.9822 14.2528C76.6697 14.2528 76.397 14.3168 76.1641 14.4446C75.9311 14.5724 75.7521 14.7528 75.6271 14.9858C75.5021 15.2187 75.4396 15.4915 75.4396 15.804H74.1825C74.1825 15.2727 74.3047 14.8082 74.549 14.4105C74.7933 14.0128 75.1286 13.7045 75.5547 13.4858C75.9808 13.2642 76.4652 13.1534 77.0078 13.1534C77.5561 13.1534 78.0391 13.2628 78.4567 13.4815C78.8771 13.6974 79.2053 13.9929 79.4411 14.3679C79.6768 14.7401 79.7947 15.1605 79.7947 15.6293C79.7947 15.9531 79.7337 16.2699 79.6115 16.5795C79.4922 16.8892 79.2834 17.2344 78.9851 17.6151C78.6868 17.9929 78.272 18.4517 77.7408 18.9915L76.0064 20.8068V20.8707H79.9354V22H74.1911ZM84.5888 22.1193C84.0036 22.1193 83.4808 22.0185 83.0206 21.8168C82.5632 21.6151 82.201 21.3352 81.9339 20.9773C81.6697 20.6165 81.5277 20.1989 81.5078 19.7244H82.8459C82.8629 19.983 82.9496 20.2074 83.1058 20.3977C83.2649 20.5852 83.4723 20.7301 83.728 20.8324C83.9837 20.9347 84.2678 20.9858 84.5803 20.9858C84.924 20.9858 85.228 20.9261 85.4922 20.8068C85.7592 20.6875 85.968 20.5213 86.1186 20.3082C86.2692 20.0923 86.3445 19.8438 86.3445 19.5625C86.3445 19.2699 86.2692 19.0128 86.1186 18.7912C85.9709 18.5668 85.7536 18.3906 85.4666 18.2628C85.1825 18.1349 84.8388 18.071 84.4354 18.071H83.6982V16.9972H84.4354C84.7592 16.9972 85.0433 16.9389 85.2876 16.8224C85.5348 16.706 85.728 16.544 85.8672 16.3366C86.0064 16.1264 86.076 15.8807 86.076 15.5994C86.076 15.3295 86.0149 15.0952 85.8928 14.8963C85.7734 14.6946 85.603 14.5369 85.3814 14.4233C85.1626 14.3097 84.9041 14.2528 84.6058 14.2528C84.3217 14.2528 84.0561 14.3054 83.8089 14.4105C83.5646 14.5128 83.3658 14.6605 83.2124 14.8537C83.0589 15.044 82.9766 15.2727 82.9652 15.5398H81.6911C81.7053 15.0682 81.8445 14.6534 82.1087 14.2955C82.3757 13.9375 82.728 13.6577 83.1655 13.456C83.603 13.2543 84.0888 13.1534 84.6229 13.1534C85.1825 13.1534 85.6655 13.2628 86.0717 13.4815C86.4808 13.6974 86.7962 13.9858 87.0178 14.3466C87.2422 14.7074 87.353 15.1023 87.3501 15.5312C87.353 16.0199 87.2166 16.4347 86.9411 16.7756C86.6683 17.1165 86.3047 17.3452 85.8501 17.4616V17.5298C86.4297 17.6179 86.8786 17.848 87.1967 18.2202C87.5178 18.5923 87.6768 19.054 87.674 19.6051C87.6768 20.0852 87.5433 20.5156 87.2734 20.8963C87.0064 21.277 86.6413 21.5767 86.1783 21.7955C85.7152 22.0114 85.1854 22.1193 84.5888 22.1193Z" fill="white"/>
</svg>
