<svg width="72" height="72" viewBox="0 0 72 72" fill="none" xmlns="http://www.w3.org/2000/svg">
<rect width="72" height="72" rx="6" fill="#2B2B2B"/>
<path d="M28.3807 33.2898C27.0341 33.2841 25.8835 32.929 24.929 32.2244C23.9744 31.5199 23.2443 30.4943 22.7386 29.1477C22.233 27.8011 21.9801 26.179 21.9801 24.2812C21.9801 22.3892 22.233 20.7727 22.7386 19.4318C23.25 18.0909 23.983 17.0682 24.9375 16.3636C25.8977 15.6591 27.0455 15.3068 28.3807 15.3068C29.7159 15.3068 30.8608 15.6619 31.8153 16.3722C32.7699 17.0767 33.5 18.0994 34.0057 19.4403C34.517 20.7756 34.7727 22.3892 34.7727 24.2812C34.7727 26.1847 34.5199 27.8097 34.0142 29.1562C33.5085 30.4972 32.7784 31.5227 31.8239 32.233C30.8693 32.9375 29.7216 33.2898 28.3807 33.2898ZM28.3807 31.0142C29.5625 31.0142 30.4858 30.4375 31.1506 29.2841C31.821 28.1307 32.1562 26.4631 32.1562 24.2812C32.1562 22.8324 32.0028 21.608 31.696 20.608C31.3949 19.6023 30.9602 18.8409 30.392 18.3239C29.8295 17.8011 29.1591 17.5398 28.3807 17.5398C27.2045 17.5398 26.2813 18.1193 25.6108 19.2784C24.9403 20.4375 24.6023 22.1051 24.5966 24.2812C24.5966 25.7358 24.7472 26.9659 25.0483 27.9716C25.3551 28.9716 25.7898 29.7301 26.3523 30.2472C26.9148 30.7585 27.5909 31.0142 28.3807 31.0142ZM43.8899 33.2386C43.1115 33.2273 42.3445 33.0852 41.5888 32.8125C40.8388 32.5398 40.157 32.0852 39.5433 31.4489C38.9297 30.8125 38.4382 29.9574 38.0689 28.8835C37.7053 27.8097 37.5234 26.4687 37.5234 24.8608C37.5234 23.3381 37.674 21.9858 37.9751 20.804C38.282 19.6222 38.7223 18.625 39.2962 17.8125C39.87 16.9943 40.5632 16.3722 41.3757 15.946C42.1882 15.5199 43.1001 15.3068 44.1115 15.3068C45.1513 15.3068 46.0746 15.5114 46.8814 15.9205C47.6882 16.3295 48.3416 16.8949 48.8416 17.6165C49.3473 18.3381 49.6683 19.1591 49.8047 20.0795H47.2053C47.0291 19.3523 46.6797 18.7585 46.157 18.2983C45.6342 17.8381 44.9524 17.608 44.1115 17.608C42.8331 17.608 41.8359 18.1648 41.12 19.2784C40.4098 20.392 40.0518 21.9403 40.0462 23.9233H40.174C40.4751 23.429 40.8445 23.0085 41.282 22.6619C41.7251 22.3097 42.2195 22.0398 42.7649 21.8523C43.3161 21.6591 43.8956 21.5625 44.5036 21.5625C45.5149 21.5625 46.4297 21.8097 47.2479 22.304C48.0717 22.7926 48.728 23.4687 49.2166 24.3324C49.7053 25.196 49.9496 26.1847 49.9496 27.2983C49.9496 28.4119 49.6967 29.4205 49.1911 30.3239C48.6911 31.2273 47.9865 31.9432 47.0774 32.4716C46.1683 32.9943 45.1058 33.25 43.8899 33.2386ZM43.8814 31.0227C44.5518 31.0227 45.1513 30.858 45.6797 30.5284C46.2081 30.1989 46.6257 29.7557 46.9325 29.1989C47.2393 28.642 47.3928 28.0199 47.3928 27.3324C47.3928 26.6619 47.2422 26.0511 46.9411 25.5C46.6456 24.9489 46.2365 24.5114 45.7138 24.1875C45.1967 23.8636 44.6058 23.7017 43.9411 23.7017C43.4354 23.7017 42.9666 23.7983 42.5348 23.9915C42.1087 24.1847 41.7337 24.4517 41.4098 24.7926C41.0859 25.1335 40.8303 25.5256 40.6428 25.9688C40.4609 26.4062 40.37 26.8693 40.37 27.358C40.37 28.0114 40.5206 28.6165 40.8217 29.1733C41.1286 29.7301 41.5462 30.179 42.0746 30.5199C42.6087 30.8551 43.2109 31.0227 43.8814 31.0227Z" fill="white"/>
<path d="M16.6268 59V50.2727H22.0387V51.4062H17.9435V54.0653H21.6509V55.1946H17.9435V59H16.6268ZM23.658 59V50.2727H29.1296V51.4062H24.9748V54.0653H28.8441V55.1946H24.9748V57.8665H29.1808V59H23.658ZM30.8885 59V50.2727H34.0845C34.7038 50.2727 35.2166 50.375 35.6229 50.5795C36.0291 50.7812 36.3331 51.0554 36.5348 51.402C36.7365 51.7457 36.8374 52.1335 36.8374 52.5653C36.8374 52.929 36.7706 53.2358 36.6371 53.4858C36.5036 53.733 36.3246 53.9318 36.1001 54.0824C35.8786 54.2301 35.6342 54.3381 35.3672 54.4062V54.4915C35.657 54.5057 35.9396 54.5994 36.2152 54.7727C36.4936 54.9432 36.7237 55.1861 36.9055 55.5014C37.0874 55.8168 37.1783 56.2003 37.1783 56.652C37.1783 57.098 37.0732 57.4986 36.8629 57.8537C36.6555 58.206 36.3345 58.4858 35.8999 58.6932C35.4652 58.8977 34.9098 59 34.2337 59H30.8885ZM32.2053 57.8707H34.1058C34.7365 57.8707 35.1882 57.7486 35.4609 57.5043C35.7337 57.2599 35.87 56.9545 35.87 56.5881C35.87 56.3125 35.8004 56.0597 35.6612 55.8295C35.522 55.5994 35.3232 55.4162 35.0646 55.2798C34.8089 55.1435 34.505 55.0753 34.1527 55.0753H32.2053V57.8707ZM32.2053 54.0483H33.9695C34.2649 54.0483 34.5305 53.9915 34.7663 53.8778C35.005 53.7642 35.1939 53.6051 35.3331 53.4006C35.4751 53.1932 35.5462 52.9489 35.5462 52.6676C35.5462 52.3068 35.4197 52.0043 35.1669 51.7599C34.9141 51.5156 34.5263 51.3935 34.0036 51.3935H32.2053V54.0483ZM40.2955 57.8068L40.2315 58.2713C40.1889 58.6122 40.1165 58.9673 40.0142 59.3366C39.9148 59.7088 39.8111 60.054 39.7031 60.3722C39.598 60.6903 39.5114 60.9432 39.4432 61.1307H38.5398C38.5767 60.9545 38.6278 60.7159 38.6932 60.4148C38.7585 60.1165 38.8224 59.7827 38.8849 59.4134C38.9474 59.044 38.9943 58.6676 39.0256 58.2841L39.0682 57.8068H40.2955ZM42.0778 59V58.0455L45.0309 54.9858C45.3462 54.6534 45.6062 54.3622 45.8107 54.1122C46.0181 53.8594 46.1729 53.6193 46.2752 53.392C46.3775 53.1648 46.4286 52.9233 46.4286 52.6676C46.4286 52.3778 46.3604 52.1278 46.2241 51.9176C46.0877 51.7045 45.9016 51.5412 45.6658 51.4276C45.43 51.3111 45.1644 51.2528 44.869 51.2528C44.5565 51.2528 44.2837 51.3168 44.0508 51.4446C43.8178 51.5724 43.6388 51.7528 43.5138 51.9858C43.3888 52.2187 43.3263 52.4915 43.3263 52.804H42.0692C42.0692 52.2727 42.1914 51.8082 42.4357 51.4105C42.68 51.0128 43.0153 50.7045 43.4414 50.4858C43.8675 50.2642 44.3519 50.1534 44.8945 50.1534C45.4428 50.1534 45.9258 50.2628 46.3434 50.4815C46.7638 50.6974 47.092 50.9929 47.3278 51.3679C47.5636 51.7401 47.6815 52.1605 47.6815 52.6293C47.6815 52.9531 47.6204 53.2699 47.4982 53.5795C47.3789 53.8892 47.1701 54.2344 46.8718 54.6151C46.5735 54.9929 46.1587 55.4517 45.6275 55.9915L43.8931 57.8068V57.8707H47.8221V59H42.0778ZM52.4755 59.1193C51.8903 59.1193 51.3675 59.0185 50.9073 58.8168C50.4499 58.6151 50.0877 58.3352 49.8207 57.9773C49.5565 57.6165 49.4144 57.1989 49.3945 56.7244H50.7326C50.7496 56.983 50.8363 57.2074 50.9925 57.3977C51.1516 57.5852 51.359 57.7301 51.6147 57.8324C51.8704 57.9347 52.1545 57.9858 52.467 57.9858C52.8107 57.9858 53.1147 57.9261 53.3789 57.8068C53.646 57.6875 53.8548 57.5213 54.0053 57.3082C54.1559 57.0923 54.2312 56.8438 54.2312 56.5625C54.2312 56.2699 54.1559 56.0128 54.0053 55.7912C53.8576 55.5668 53.6403 55.3906 53.3533 55.2628C53.0692 55.1349 52.7255 55.071 52.3221 55.071H51.5849V53.9972H52.3221C52.646 53.9972 52.93 53.9389 53.1744 53.8224C53.4215 53.706 53.6147 53.544 53.7539 53.3366C53.8931 53.1264 53.9627 52.8807 53.9627 52.5994C53.9627 52.3295 53.9016 52.0952 53.7795 51.8963C53.6602 51.6946 53.4897 51.5369 53.2681 51.4233C53.0494 51.3097 52.7908 51.2528 52.4925 51.2528C52.2085 51.2528 51.9428 51.3054 51.6957 51.4105C51.4513 51.5128 51.2525 51.6605 51.0991 51.8537C50.9457 52.044 50.8633 52.2727 50.8519 52.5398H49.5778C49.592 52.0682 49.7312 51.6534 49.9954 51.2955C50.2624 50.9375 50.6147 50.6577 51.0522 50.456C51.4897 50.2543 51.9755 50.1534 52.5096 50.1534C53.0692 50.1534 53.5522 50.2628 53.9585 50.4815C54.3675 50.6974 54.6829 50.9858 54.9045 51.3466C55.1289 51.7074 55.2397 52.1023 55.2369 52.5312C55.2397 53.0199 55.1033 53.4347 54.8278 53.7756C54.555 54.1165 54.1914 54.3452 53.7369 54.4616V54.5298C54.3164 54.6179 54.7653 54.848 55.0835 55.2202C55.4045 55.5923 55.5636 56.054 55.5607 56.6051C55.5636 57.0852 55.43 57.5156 55.1602 57.8963C54.8931 58.277 54.5281 58.5767 54.065 58.7955C53.6019 59.0114 53.0721 59.1193 52.4755 59.1193Z" fill="white"/>
</svg>
