<svg width="72" height="72" viewBox="0 0 72 72" fill="none" xmlns="http://www.w3.org/2000/svg">
<rect width="72" height="72" rx="6" fill="#2B2B2B"/>
<path d="M29.2947 33.2898C27.9482 33.2841 26.7976 32.929 25.843 32.2244C24.8885 31.5199 24.1584 30.4943 23.6527 29.1477C23.147 27.8011 22.8942 26.179 22.8942 24.2812C22.8942 22.3892 23.147 20.7727 23.6527 19.4318C24.1641 18.0909 24.897 17.0682 25.8516 16.3636C26.8118 15.6591 27.9595 15.3068 29.2947 15.3068C30.63 15.3068 31.7749 15.6619 32.7294 16.3722C33.6839 17.0767 34.4141 18.0994 34.9197 19.4403C35.4311 20.7756 35.6868 22.3892 35.6868 24.2812C35.6868 26.1847 35.4339 27.8097 34.9283 29.1562C34.4226 30.4972 33.6925 31.5227 32.7379 32.233C31.7834 32.9375 30.6357 33.2898 29.2947 33.2898ZM29.2947 31.0142C30.4766 31.0142 31.3999 30.4375 32.0646 29.2841C32.7351 28.1307 33.0703 26.4631 33.0703 24.2812C33.0703 22.8324 32.9169 21.608 32.6101 20.608C32.3089 19.6023 31.8743 18.8409 31.3061 18.3239C30.7436 17.8011 30.0732 17.5398 29.2947 17.5398C28.1186 17.5398 27.1953 18.1193 26.5249 19.2784C25.8544 20.4375 25.5163 22.1051 25.5107 24.2812C25.5107 25.7358 25.6612 26.9659 25.9624 27.9716C26.2692 28.9716 26.7038 29.7301 27.2663 30.2472C27.8288 30.7585 28.505 31.0142 29.2947 31.0142ZM38.8295 33L46.4489 17.9318V17.804H37.6364V15.5455H49.1761V17.8807L41.5824 33H38.8295Z" fill="white"/>
<path d="M16.6268 59V50.2727H22.0387V51.4062H17.9435V54.0653H21.6509V55.1946H17.9435V59H16.6268ZM23.658 59V50.2727H29.1296V51.4062H24.9748V54.0653H28.8441V55.1946H24.9748V57.8665H29.1808V59H23.658ZM30.8885 59V50.2727H34.0845C34.7038 50.2727 35.2166 50.375 35.6229 50.5795C36.0291 50.7812 36.3331 51.0554 36.5348 51.402C36.7365 51.7457 36.8374 52.1335 36.8374 52.5653C36.8374 52.929 36.7706 53.2358 36.6371 53.4858C36.5036 53.733 36.3246 53.9318 36.1001 54.0824C35.8786 54.2301 35.6342 54.3381 35.3672 54.4062V54.4915C35.657 54.5057 35.9396 54.5994 36.2152 54.7727C36.4936 54.9432 36.7237 55.1861 36.9055 55.5014C37.0874 55.8168 37.1783 56.2003 37.1783 56.652C37.1783 57.098 37.0732 57.4986 36.8629 57.8537C36.6555 58.206 36.3345 58.4858 35.8999 58.6932C35.4652 58.8977 34.9098 59 34.2337 59H30.8885ZM32.2053 57.8707H34.1058C34.7365 57.8707 35.1882 57.7486 35.4609 57.5043C35.7337 57.2599 35.87 56.9545 35.87 56.5881C35.87 56.3125 35.8004 56.0597 35.6612 55.8295C35.522 55.5994 35.3232 55.4162 35.0646 55.2798C34.8089 55.1435 34.505 55.0753 34.1527 55.0753H32.2053V57.8707ZM32.2053 54.0483H33.9695C34.2649 54.0483 34.5305 53.9915 34.7663 53.8778C35.005 53.7642 35.1939 53.6051 35.3331 53.4006C35.4751 53.1932 35.5462 52.9489 35.5462 52.6676C35.5462 52.3068 35.4197 52.0043 35.1669 51.7599C34.9141 51.5156 34.5263 51.3935 34.0036 51.3935H32.2053V54.0483ZM40.2955 57.8068L40.2315 58.2713C40.1889 58.6122 40.1165 58.9673 40.0142 59.3366C39.9148 59.7088 39.8111 60.054 39.7031 60.3722C39.598 60.6903 39.5114 60.9432 39.4432 61.1307H38.5398C38.5767 60.9545 38.6278 60.7159 38.6932 60.4148C38.7585 60.1165 38.8224 59.7827 38.8849 59.4134C38.9474 59.044 38.9943 58.6676 39.0256 58.2841L39.0682 57.8068H40.2955ZM42.0778 59V58.0455L45.0309 54.9858C45.3462 54.6534 45.6062 54.3622 45.8107 54.1122C46.0181 53.8594 46.1729 53.6193 46.2752 53.392C46.3775 53.1648 46.4286 52.9233 46.4286 52.6676C46.4286 52.3778 46.3604 52.1278 46.2241 51.9176C46.0877 51.7045 45.9016 51.5412 45.6658 51.4276C45.43 51.3111 45.1644 51.2528 44.869 51.2528C44.5565 51.2528 44.2837 51.3168 44.0508 51.4446C43.8178 51.5724 43.6388 51.7528 43.5138 51.9858C43.3888 52.2187 43.3263 52.4915 43.3263 52.804H42.0692C42.0692 52.2727 42.1914 51.8082 42.4357 51.4105C42.68 51.0128 43.0153 50.7045 43.4414 50.4858C43.8675 50.2642 44.3519 50.1534 44.8945 50.1534C45.4428 50.1534 45.9258 50.2628 46.3434 50.4815C46.7638 50.6974 47.092 50.9929 47.3278 51.3679C47.5636 51.7401 47.6815 52.1605 47.6815 52.6293C47.6815 52.9531 47.6204 53.2699 47.4982 53.5795C47.3789 53.8892 47.1701 54.2344 46.8718 54.6151C46.5735 54.9929 46.1587 55.4517 45.6275 55.9915L43.8931 57.8068V57.8707H47.8221V59H42.0778ZM52.4755 59.1193C51.8903 59.1193 51.3675 59.0185 50.9073 58.8168C50.4499 58.6151 50.0877 58.3352 49.8207 57.9773C49.5565 57.6165 49.4144 57.1989 49.3945 56.7244H50.7326C50.7496 56.983 50.8363 57.2074 50.9925 57.3977C51.1516 57.5852 51.359 57.7301 51.6147 57.8324C51.8704 57.9347 52.1545 57.9858 52.467 57.9858C52.8107 57.9858 53.1147 57.9261 53.3789 57.8068C53.646 57.6875 53.8548 57.5213 54.0053 57.3082C54.1559 57.0923 54.2312 56.8438 54.2312 56.5625C54.2312 56.2699 54.1559 56.0128 54.0053 55.7912C53.8576 55.5668 53.6403 55.3906 53.3533 55.2628C53.0692 55.1349 52.7255 55.071 52.3221 55.071H51.5849V53.9972H52.3221C52.646 53.9972 52.93 53.9389 53.1744 53.8224C53.4215 53.706 53.6147 53.544 53.7539 53.3366C53.8931 53.1264 53.9627 52.8807 53.9627 52.5994C53.9627 52.3295 53.9016 52.0952 53.7795 51.8963C53.6602 51.6946 53.4897 51.5369 53.2681 51.4233C53.0494 51.3097 52.7908 51.2528 52.4925 51.2528C52.2085 51.2528 51.9428 51.3054 51.6957 51.4105C51.4513 51.5128 51.2525 51.6605 51.0991 51.8537C50.9457 52.044 50.8633 52.2727 50.8519 52.5398H49.5778C49.592 52.0682 49.7312 51.6534 49.9954 51.2955C50.2624 50.9375 50.6147 50.6577 51.0522 50.456C51.4897 50.2543 51.9755 50.1534 52.5096 50.1534C53.0692 50.1534 53.5522 50.2628 53.9585 50.4815C54.3675 50.6974 54.6829 50.9858 54.9045 51.3466C55.1289 51.7074 55.2397 52.1023 55.2369 52.5312C55.2397 53.0199 55.1033 53.4347 54.8278 53.7756C54.555 54.1165 54.1914 54.3452 53.7369 54.4616V54.5298C54.3164 54.6179 54.7653 54.848 55.0835 55.2202C55.4045 55.5923 55.5636 56.054 55.5607 56.6051C55.5636 57.0852 55.43 57.5156 55.1602 57.8963C54.8931 58.277 54.5281 58.5767 54.065 58.7955C53.6019 59.0114 53.0721 59.1193 52.4755 59.1193Z" fill="white"/>
</svg>
